<?xml version="1.0" encoding="UTF-8"?>
<svg id="a" data-name="レイヤー 1" xmlns="http://www.w3.org/2000/svg" viewBox="0 0 211.31 69.36">
  <defs>
    <style>
      .b {
        fill: #fff;
        stroke-width: 0px;
      }
    </style>
  </defs>
  <g>
    <path class="b" d="M21.31,30.6v-1.79h4.65v2.15c0,2.24.98,3.04,2.55,3.04s2.55-.81,2.55-3.13c0-2.59-.98-4.25-4.21-7.07-4.12-3.62-5.46-6.17-5.46-9.75,0-4.92,2.55-7.78,7.34-7.78s7.16,2.86,7.16,7.87v1.3h-4.65v-1.61c0-2.24-.89-3.09-2.46-3.09s-2.46.85-2.46,3c0,2.28,1.03,3.94,4.25,6.76,4.12,3.62,5.41,6.13,5.41,10.02,0,5.1-2.6,7.96-7.43,7.96s-7.25-2.86-7.25-7.87Z"/>
    <path class="b" d="M38.8,6.71h13.42v4.47h-8.5v8.28h6.76v4.47h-6.76v9.62h8.5v4.47h-13.42V6.71Z"/>
    <path class="b" d="M55.04,6.71h7.29c5.1,0,7.29,2.37,7.29,7.2v1.92c0,3.22-1.03,5.28-3.22,6.17v.09c2.46.76,3.27,3.09,3.27,6.62v5.5c0,1.52.04,2.64.54,3.8h-5.01c-.27-.81-.45-1.3-.45-3.85v-5.73c0-2.91-.85-3.85-3.09-3.85h-1.7v13.42h-4.92V6.71ZM61.75,20.13c1.83,0,2.95-.81,2.95-3.31v-2.42c0-2.24-.76-3.22-2.51-3.22h-2.24v8.95h1.79Z"/>
    <path class="b" d="M73.06,6.71h13.42v4.47h-8.5v8.28h6.76v4.47h-6.76v9.62h8.5v4.47h-13.42V6.71Z"/>
    <path class="b" d="M89.3,6.71h6.17l4.79,18.75h.09V6.71h4.38v31.32h-5.06l-5.91-22.86h-.09v22.86h-4.38V6.71Z"/>
    <path class="b" d="M108.4,6.71h7.52c4.92,0,7.34,2.73,7.34,7.74v15.84c0,5.01-2.42,7.74-7.34,7.74h-7.52V6.71ZM115.83,33.55c1.57,0,2.51-.81,2.51-3.04V14.22c0-2.24-.94-3.04-2.51-3.04h-2.5v22.37h2.5Z"/>
    <path class="b" d="M126.57,6.71h4.92v31.32h-4.92V6.71Z"/>
    <path class="b" d="M135.16,6.71h7.25c4.92,0,7.34,2.73,7.34,7.74v3.09c0,5.01-2.42,7.74-7.34,7.74h-2.33v12.75h-4.92V6.71ZM142.4,20.8c1.57,0,2.42-.72,2.42-2.95v-3.71c0-2.24-.85-2.95-2.42-2.95h-2.33v9.62h2.33Z"/>
    <path class="b" d="M152.42,6.71h4.92v31.32h-4.92V6.71Z"/>
    <path class="b" d="M164.86,11.18h-5.14v-4.47h15.21v4.47h-5.14v26.84h-4.92V11.18Z"/>
    <path class="b" d="M181.81,24.69l-5.95-17.99h5.23l3.36,11.5h.09l3.36-11.5h4.79l-5.95,17.99v13.33h-4.92v-13.33Z"/>
  </g>
  <g>
    <path class="b" d="M14.32,49.45c0-1.62-.05-4.62-.47-5.4-.17-.31-.62-.5-1.24-.55l-.62-.05c-.15-.18-.1-.52.05-.63.94.05,1.86.08,2.83.08,1.04,0,1.71-.03,2.61-.08.2.13.17.47.05.63l-.6.05c-.62.05-1.09.29-1.24.63-.35.86-.35,3.86-.35,5.32v2.95c0,2.27-.35,4.67-1.74,6.24-1.07,1.23-2.9,1.91-4.74,1.91-1.71,0-3.43-.34-4.64-1.44-1.32-1.15-1.94-3.05-1.94-6.16v-6.16c0-2.71-.05-3.16-1.49-3.29l-.62-.05c-.15-.1-.1-.55.05-.63,1.24.05,2.09.08,3.08.08s1.84-.03,3.05-.08c.15.08.2.52.05.63l-.6.05c-1.44.13-1.49.57-1.49,3.29v5.64c0,4.2,1.24,6.97,5.04,6.97,3.6,0,4.96-2.97,4.96-6.94v-3Z"/>
    <path class="b" d="M28.61,57.2c0,1.88.05,2.14.94,2.27l.6.08c.17.13.12.57-.05.65-.82-.05-1.54-.08-2.41-.08s-1.64.03-2.38.08c-.17-.08-.22-.52-.05-.65l.57-.08c.92-.13.94-.39.94-2.27v-11.79c0-1.54-.02-1.7-.77-2.17l-.25-.16c-.12-.08-.12-.44,0-.52.62-.21,1.79-.6,2.68-1.1.1,0,.2.05.25.16-.02.78-.07,2.09-.07,3.24v12.34Z"/>
    <path class="b" d="M41.47,50.94c-.42,0-.45.08-.45.63v4.88c0,1.51.17,2.9,1.81,2.9.25,0,.47-.05.67-.13.22-.08.55-.37.62-.37.2,0,.3.29.25.44-.45.55-1.34,1.2-2.61,1.2-2.14,0-2.58-1.25-2.58-2.82v-5.97c0-.71-.02-.76-.52-.76h-.7c-.15-.1-.17-.39-.07-.55.72-.24,1.34-.57,1.59-.81.32-.31.79-1.02,1.04-1.54.12-.05.42-.05.52.13v1.17c0,.47.02.5.45.5h2.76c.3.23.25.94.02,1.1h-2.81Z"/>
    <path class="b" d="M53.58,52.63c0-1.02,0-1.15-.67-1.62l-.22-.16c-.1-.1-.1-.39.02-.47.57-.21,1.99-.89,2.56-1.28.12,0,.22.05.25.16-.05.91-.1,2.17-.1,3.24v4.7c0,1.88.05,2.14.94,2.27l.52.08c.17.13.12.57-.05.65-.74-.05-1.46-.08-2.33-.08s-1.64.03-2.33.08c-.17-.08-.22-.52-.05-.65l.52-.08c.92-.13.94-.39.94-2.27v-4.57ZM55.65,45.2c0,.94-.62,1.36-1.32,1.36-.77,0-1.27-.6-1.27-1.3,0-.86.6-1.41,1.34-1.41s1.24.63,1.24,1.36Z"/>
    <path class="b" d="M79.38,53.42c0-1.77-.74-2.69-2.31-2.69-.94,0-1.71.44-2.06.91-.3.39-.37.65-.37,1.57v3.99c0,1.88.05,2.14.94,2.27l.52.08c.17.13.12.57-.05.65-.74-.05-1.46-.08-2.33-.08s-1.56.03-2.26.08c-.17-.08-.22-.52-.05-.65l.45-.08c.92-.16.94-.39.94-2.27v-3.78c0-1.75-.74-2.69-2.28-2.69-1.02,0-1.71.47-2.09.94-.25.31-.37.65-.37,1.49v4.04c0,1.88.05,2.11.94,2.27l.45.08c.17.13.12.57-.05.65-.67-.05-1.39-.08-2.26-.08s-1.64.03-2.41.08c-.17-.08-.22-.52-.05-.65l.6-.08c.92-.13.94-.39.94-2.27v-4.57c0-1.02,0-1.15-.67-1.62l-.22-.16c-.1-.1-.1-.39.02-.47.57-.21,1.99-.89,2.48-1.28.1,0,.22.05.27.18-.05.6-.05.99-.05,1.23,0,.16.1.29.27.29.94-.7,2.11-1.33,3.3-1.33s1.94.47,2.63,1.54c.22.05.4-.05.62-.21.99-.73,2.21-1.33,3.38-1.33,1.99,0,2.95,1.43,2.95,3.24v4.49c0,1.88.05,2.14.94,2.27l.6.08c.17.13.12.57-.05.65-.82-.05-1.54-.08-2.41-.08s-1.56.03-2.26.08c-.17-.08-.22-.52-.05-.65l.45-.08c.92-.16.94-.39.94-2.27v-3.78Z"/>
    <path class="b" d="M95.47,54.72c.37-.13.42-.37.42-.76l.02-1.2c.02-.96-.27-2.27-1.81-2.27-.7,0-1.54.37-1.59,1.17-.02.42-.05.73-.25.89-.37.31-1.04.5-1.42.5-.22,0-.35-.13-.35-.37,0-1.36,2.81-3.21,4.62-3.21s2.66,1.1,2.58,3.05l-.15,4.54c-.05,1.2.17,2.27,1.14,2.27.25,0,.47-.08.62-.16.12-.08.25-.18.32-.18.1,0,.17.16.17.34,0,.13-.87,1.15-2.09,1.15-.6,0-1.19-.23-1.61-.81-.1-.16-.25-.37-.4-.37-.17,0-.47.23-.97.52-.55.31-1.09.65-1.79.65s-1.32-.21-1.74-.6c-.47-.44-.77-1.1-.77-1.83,0-1.02.47-1.62,2.06-2.22l2.95-1.12ZM93.93,59.31c.5,0,1.27-.39,1.51-.65.3-.31.3-.68.32-1.23l.05-1.54c0-.29-.1-.34-.25-.34s-.57.1-1.02.26c-1.46.52-2.18.91-2.18,1.93,0,.44.3,1.57,1.56,1.57Z"/>
    <path class="b" d="M110.78,50.94c-.42,0-.45.08-.45.63v4.88c0,1.51.17,2.9,1.81,2.9.25,0,.47-.05.67-.13.22-.08.55-.37.62-.37.2,0,.3.29.25.44-.45.55-1.34,1.2-2.61,1.2-2.13,0-2.58-1.25-2.58-2.82v-5.97c0-.71-.02-.76-.52-.76h-.7c-.15-.1-.17-.39-.07-.55.72-.24,1.34-.57,1.59-.81.32-.31.79-1.02,1.04-1.54.12-.05.42-.05.52.13v1.17c0,.47.02.5.45.5h2.76c.3.23.25.94.03,1.1h-2.81Z"/>
    <path class="b" d="M123.69,53.44c-.65,0-.67.05-.67.7,0,2.64,1.46,4.88,4.12,4.88.82,0,1.51-.26,2.28-1.28.25-.08.42.08.45.31-.82,1.77-2.61,2.43-3.9,2.43-1.61,0-2.88-.73-3.6-1.72-.74-1.02-1.04-2.24-1.04-3.39,0-3.21,2.01-5.9,4.99-5.9,2.13,0,3.52,1.54,3.52,3.1,0,.37-.05.57-.1.68-.07.16-.42.18-1.46.18h-4.59ZM125.23,52.66c1.84,0,2.38-.1,2.58-.26.07-.05.15-.16.15-.5,0-.73-.47-1.64-1.91-1.64s-2.73,1.41-2.76,2.27c0,.05,0,.13.17.13h1.76Z"/>
    <path class="b" d="M153.27,46.29c0-1.83-.12-2.37-1.17-2.53l-.55-.08c-.2-.13-.22-.55.02-.65,2.11-.13,4.12-.21,6.23-.21s3.85.16,5.46.78c3.35,1.28,5.04,4.25,5.04,7.7s-1.51,6.16-4.34,7.78c-1.61.91-3.65,1.25-5.56,1.25-1.59,0-3.18-.21-4.05-.21-1.04,0-1.94.03-3.1.08-.15-.08-.2-.5-.05-.65l.57-.08c1.44-.21,1.49-.52,1.49-3.26v-9.92ZM155.31,55.61c0,1.38.07,2.22.5,2.84.55.81,1.49,1.07,3.05,1.07,4.82,0,6.98-3.31,6.98-8.17,0-2.87-1.32-7.72-7.82-7.72-1.46,0-2.26.21-2.46.37-.2.16-.25.81-.25,1.98v9.63Z"/>
    <path class="b" d="M177.54,52.63c0-1.02,0-1.15-.67-1.62l-.22-.16c-.1-.1-.1-.39.03-.47.57-.21,1.99-.89,2.56-1.28.12,0,.22.05.25.16-.05.91-.1,2.17-.1,3.24v4.7c0,1.88.05,2.14.94,2.27l.52.08c.17.13.12.57-.05.65-.75-.05-1.46-.08-2.33-.08s-1.64.03-2.33.08c-.17-.08-.22-.52-.05-.65l.52-.08c.92-.13.94-.39.94-2.27v-4.57ZM179.6,45.2c0,.94-.62,1.36-1.32,1.36-.77,0-1.27-.6-1.27-1.3,0-.86.6-1.41,1.34-1.41s1.24.63,1.24,1.36Z"/>
    <path class="b" d="M190.9,53.44c-.65,0-.67.05-.67.7,0,2.64,1.46,4.88,4.12,4.88.82,0,1.51-.26,2.28-1.28.25-.08.42.08.45.31-.82,1.77-2.61,2.43-3.9,2.43-1.61,0-2.88-.73-3.6-1.72-.74-1.02-1.04-2.24-1.04-3.39,0-3.21,2.01-5.9,4.99-5.9,2.13,0,3.52,1.54,3.52,3.1,0,.37-.05.57-.1.68-.07.16-.42.18-1.46.18h-4.59ZM192.44,52.66c1.84,0,2.38-.1,2.58-.26.07-.05.15-.16.15-.5,0-.73-.47-1.64-1.91-1.64s-2.73,1.41-2.76,2.27c0,.05,0,.13.17.13h1.76Z"/>
    <path class="b" d="M208.3,50.94c-.42,0-.45.08-.45.63v4.88c0,1.51.17,2.9,1.81,2.9.25,0,.47-.05.67-.13.22-.08.55-.37.62-.37.2,0,.3.29.25.44-.45.55-1.34,1.2-2.61,1.2-2.13,0-2.58-1.25-2.58-2.82v-5.97c0-.71-.02-.76-.52-.76h-.7c-.15-.1-.17-.39-.07-.55.72-.24,1.34-.57,1.59-.81.32-.31.79-1.02,1.04-1.54.12-.05.42-.05.52.13v1.17c0,.47.02.5.45.5h2.76c.3.23.25.94.03,1.1h-2.81Z"/>
  </g>
</svg>