<?xml version="1.0" encoding="utf-8"?>
<!-- Generator: Adobe Illustrator 26.5.0, SVG Export Plug-In . SVG Version: 6.00 Build 0)  -->
<svg version="1.1" id="_x32_" xmlns="http://www.w3.org/2000/svg" xmlns:xlink="http://www.w3.org/1999/xlink" x="0px" y="0px"
	 viewBox="0 0 440 440" style="enable-background:new 0 0 440 440;" xml:space="preserve">
<style type="text/css">
	.st0{fill:#B50208;}
</style>
<g>
	<polygon class="st0" points="348,285 348,165.9 279.7,225.5 	"/>
	<path class="st0" d="M308.2,92H131.8c-22,0-39.8,17.8-39.8,39.8v1.2l113.9,99.3c4.1,3.5,9,5.3,14.1,5.3c5,0,10-1.7,14.1-5.3
		L348,132.9v-1.2C348,109.8,330.2,92,308.2,92z"/>
	<path class="st0" d="M250.4,251c-8.7,7.6-19.6,11.4-30.4,11.4c-10.8,0-21.7-3.8-30.4-11.4l-10.4-9L93,317.1
		c4,17.7,19.8,30.9,38.7,30.9h176.5c18.9,0,34.7-13.2,38.7-30.9L260.8,242L250.4,251z"/>
	<polygon class="st0" points="92,165.9 92,285 160.3,225.5 	"/>
</g>
</svg>
